# File created by Blade
# Date/Time:  Mon Sep 29 18:17:19 2014
#---------------------------------------------------------
:version 1.10
:name HOM
:units
  mass 1.0
  length 1.000000
  angle deg
:documentation
     Acclaim Skeleton File
:root
   axis xyz
   order TX TY TZ RX RY RZ
   position 0.000000 0.000000 0.000000
   orientation 0 0 0
:bonedata
   begin
      id 1
      name Spine_dum
      direction 0.000000 1.000000 0.000000
      length 7.508948
      axis 0.0 0.0 0.0 xyz
   end
   begin
      id 2
      name LeftUpLeg_dum
      direction 1.000000 0.000000 0.000000
      length 3.000560
      axis 0.0 0.0 0.0 xyz
   end
   begin
      id 3
      name RightUpLeg_dum
      direction -1.000000 0.000000 0.000000
      length 3.000560
      axis 0.0 0.0 0.0 xyz
   end
   begin
      id 4
      name Spine
      direction 0.000000 1.000000 0.000000
      length 0.000000
      axis 0.0 0.0 0.0 xyz
      dof rx ry rz
   end
   begin
      id 5
      name Spine_dum1
      direction 0.000000 1.000000 0.000000
      length 13.861154
      axis 0.0 0.0 0.0 xyz
   end
   begin
      id 6
      name Spine_dum2
      direction 0.000000 1.000000 0.000000
      length 8.204781
      axis 0.0 0.0 0.0 xyz
   end
   begin
      id 7
      name Spine_dum3
      direction 0.000000 1.000000 0.000000
      length 8.204781
      axis 0.0 0.0 0.0 xyz
   end
   begin
      id 8
      name Head
      direction 0.000000 1.000000 0.000000
      length 4.527550
      axis 0.0 0.0 0.0 xyz
      dof rx ry rz
   end
   begin
      id 9
      name LeftShoulder
      direction 1.000000 0.000000 0.000000
      length 6.635956
      axis 0.0 0.0 -90.0 xyz
      dof rx ry rz
   end
   begin
      id 10
      name LeftArm
      direction 1.000000 0.000000 0.000000
      length 10.274218
      axis 0.0 0.0 -90.0 xyz
      dof rx ry rz
   end
   begin
      id 11
      name LeftForeArm
      direction 1.000000 0.000000 0.000000
      length 8.522147
      axis 0.0 0.0 -90.0 xyz
      dof ry rz rx
   end
   begin
      id 12
      name LeftHand
      direction 0.000000 0.000000 0.000000
      length 0.000000
      axis 0.0 0.0 -90.0 xyz
      dof rx ry rz
   end
   begin
      id 13
      name LeftHand_dum1
      direction 0.000000 0.000000 0.000000
      length 0.000000
      axis 0.0 0.0 -90.0 xyz
   end
   begin
      id 14
      name LeftHand_dum2
      direction 1.000000 0.000000 0.000000
      length 3.937000
      axis 0.0 0.0 -90.0 xyz
   end
   begin
      id 15
      name LeftHandThumb1
      direction 0.000000 0.000000 1.000000
      length 3.937000
      axis 0.0 0.0 -90.0 xyz
      dof rx rz ry
   end
   begin
      id 16
      name RightShoulder
      direction -1.000000 0.000000 0.000000
      length 6.635956
      axis 0.0 0.0 90.0 xyz
      dof rx ry rz
   end
   begin
      id 17
      name RightArm
      direction -1.000000 0.000000 0.000000
      length 10.274218
      axis 0.0 0.0 90.0 xyz
      dof rx ry rz
   end
   begin
      id 18
      name RightForeArm
      direction -1.000000 0.000000 0.000000
      length 8.522147
      axis 0.0 0.0 90.0 xyz
      dof ry rz rx
   end
   begin
      id 19
      name RightHand
      direction 0.000000 0.000000 0.000000
      length 0.000000
      axis 0.0 0.0 90.0 xyz
      dof rx ry rz
   end
   begin
      id 20
      name RightHand_dum1
      direction 0.000000 0.000000 0.000000
      length 0.000000
      axis 0.0 0.0 90.0 xyz
   end
   begin
      id 21
      name RightHand_dum2
      direction -1.000000 0.000000 0.000000
      length 3.937000
      axis 0.0 0.0 90.0 xyz
   end
   begin
      id 22
      name RightHandThumb1
      direction 0.000000 0.000000 1.000000
      length 3.937000
      axis 0.0 0.0 90.0 xyz
      dof rx rz ry
   end
   begin
      id 23
      name LeftUpLeg
      direction 0.000000 -1.000000 0.000000
      length 16.490845
      axis 0.0 0.0 0.0 xyz
      dof rx ry rz
   end
   begin
      id 24
      name LeftLeg
      direction 0.000000 -1.000000 0.000000
      length 14.556576
      axis 0.0 0.0 0.0 xyz
      dof rx ry rz
   end
   begin
      id 25
      name LeftFoot
      direction 0.000000 -0.258819 0.965926
      length 4.831116
      axis 15.0 0.0 0.0 xyz
      dof rx ry rz
   end
   begin
      id 26
      name LeftToeBase
      direction 0.000000 0.000000 1.000000
      length 2.952750
      axis 0.0 0.0 0.0 xyz
      dof rx ry rz
   end
   begin
      id 27
      name RightUpLeg
      direction 0.000000 -1.000000 0.000000
      length 16.490845
      axis 0.0 0.0 0.0 xyz
      dof rx ry rz
   end
   begin
      id 28
      name RightLeg
      direction 0.000000 -1.000000 0.000000
      length 14.556576
      axis 0.0 0.0 0.0 xyz
      dof rx ry rz
   end
   begin
      id 29
      name RightFoot
      direction 0.000000 -0.258819 0.965926
      length 4.831116
      axis 15.0 0.0 0.0 xyz
      dof rx ry rz
   end
   begin
      id 30
      name RightToeBase
      direction 0.000000 0.000000 1.000000
      length 2.952750
      axis 0.0 0.0 0.0 xyz
      dof rx ry rz
   end
:hierarchy
   begin
      root Spine_dum LeftUpLeg_dum RightUpLeg_dum
      Spine_dum Spine
      LeftUpLeg_dum LeftUpLeg
      RightUpLeg_dum RightUpLeg
      Spine Spine_dum1 Spine_dum2 Spine_dum3
      Spine_dum1 Head
      Spine_dum2 LeftShoulder
      Spine_dum3 RightShoulder
      LeftShoulder LeftArm
      LeftArm LeftForeArm
      LeftForeArm LeftHand
      LeftHand LeftHand_dum1 LeftHand_dum2
      LeftHand_dum1 LeftHandThumb1
      RightShoulder RightArm
      RightArm RightForeArm
      RightForeArm RightHand
      RightHand RightHand_dum1 RightHand_dum2
      RightHand_dum1 RightHandThumb1
      LeftUpLeg LeftLeg
      LeftLeg LeftFoot
      LeftFoot LeftToeBase
      RightUpLeg RightLeg
      RightLeg RightFoot
      RightFoot RightToeBase
   end

# File created by Blade
# Date/Time:  Mon Sep 29 17:58:21 2014
# Frame Rate: 120.000 fps
#------------------------------------------------------
:FULLY-SPECIFIED
:DEGREES
1
root -0.370432 32.911903 0.017362 11.325651 1.918998 -0.776869
Spine -15.509620 5.951739 0.292518
Head 2.786248 -12.201262 9.676072
LeftShoulder -15.675826 13.250633 26.604859
LeftArm 16.133350 -21.361470 -22.537340
LeftForeArm 15.248283 -0.000000 13.669221
LeftHand -24.683768 -0.000000 -10.953700
LeftHandThumb1 -26.253704 0.000000 33.147579
RightShoulder -23.255695 15.186080 -39.793624
RightArm -5.637818 7.086481 26.014656
RightForeArm -33.558868 0.000000 13.279578
RightHand -7.563843 -0.000000 14.433754
RightHandThumb1 -24.326973 -0.000000 -32.862282
LeftUpLeg -4.118613 8.218162 2.136875
LeftLeg -1.911279 -0.000000 0.000000
LeftFoot -10.234157 4.777861 -10.546384
LeftToeBase 11.399314 -0.000000 -0.000000
RightUpLeg -6.359369 -7.300612 -1.071371
RightLeg 0.814957 -0.000000 -0.000000
RightFoot -8.318796 -7.016719 6.065547
RightToeBase 3.258499 -0.000000 -0.000000
2
root -0.366378 32.912261 0.016451 11.319633 1.914424 -0.772024
Spine -15.513955 5.968483 0.271406
Head 2.812694 -12.201533 9.709061
LeftShoulder -15.718139 13.253161 26.604181
LeftArm 16.241136 -21.370836 -22.610856
LeftForeArm 15.322116 0.000000 13.664439
LeftHand -24.678095 -0.000000 -10.894329
LeftHandThumb1 -26.253704 0.000000 33.147579
RightShoulder -23.261938 15.178565 -39.787826
RightArm -5.649838 7.110594 26.010479
RightForeArm -33.580274 0.000000 13.360690
RightHand -7.777593 -0.000000 14.332783
RightHandThumb1 -24.326973 -0.000000 -32.862282
LeftUpLeg -4.116312 8.226570 2.126767
LeftLeg -1.915399 -0.000000 0.000000
LeftFoot -10.279488 4.775087 -10.690430
LeftToeBase 11.607394 -0.000000 -0.000000
RightUpLeg -6.357344 -7.309676 -1.082740
RightLeg 0.816850 -0.000000 -0.000000
RightFoot -8.307509 -7.009617 6.073951
RightToeBase 3.242798 -0.000000 -0.000000
3
root -0.362486 32.912174 0.014391 11.318435 1.906058 -0.777052
Spine -15.526765 5.998096 0.277361
Head 2.858276 -12.196805 9.680864
LeftShoulder -15.725511 13.217459 26.602230
LeftArm 16.294469 -21.300424 -22.655754
LeftForeArm 15.277268 -0.000000 13.665573
LeftHand -24.736446 -0.000000 -10.820693
LeftHandThumb1 -26.253704 0.000000 33.147579
RightShoulder -23.268887 15.171652 -39.801473
RightArm -5.646392 7.123987 26.002732
RightForeArm -33.642647 -0.000000 13.376629
RightHand -7.736217 -0.000000 14.328954
RightHandThumb1 -24.326973 -0.000000 -32.862282
LeftUpLeg -4.116217 8.214128 2.125404
LeftLeg -1.916256 -0.000000 0.000000
LeftFoot -10.283521 4.800661 -10.687942
LeftToeBase 11.586734 -0.000000 -0.000000
RightUpLeg -6.362302 -7.298936 -1.085464
RightLeg 0.820694 -0.000000 -0.000000
RightFoot -8.311615 -7.013650 6.082717
RightToeBase 3.235069 -0.000000 -0.000000
4
root -0.357828 32.912434 0.013185 11.304016 1.900860 -0.771728
Spine -15.525927 6.026418 0.267929
Head 2.912924 -12.196797 9.661544
LeftShoulder -15.735656 13.199083 26.587534
LeftArm 16.377186 -21.281302 -22.694626
LeftForeArm 15.249028 -0.000000 13.644199
LeftHand -24.693213 -0.000000 -10.788137
LeftHandThumb1 -26.253704 0.000000 33.147579
RightShoulder -23.275641 15.168975 -39.771292
RightArm -5.600808 7.091568 25.945893
RightForeArm -33.591777 0.000000 13.320799
RightHand -7.600622 0.000000 14.427758
RightHandThumb1 -24.326973 -0.000000 -32.862282
LeftUpLeg -4.104904 8.187708 2.114008
LeftLeg -1.911244 -0.000000 0.000000
LeftFoot -10.283800 4.835240 -10.686411
LeftToeBase 11.558752 -0.000000 -0.000000
RightUpLeg -6.350319 -7.308449 -1.100294
RightLeg 0.818433 -0.000000 -0.000000
RightFoot -8.304047 -7.003101 6.080605
RightToeBase 3.233653 -0.000000 -0.000000
5
root -0.351884 32.912599 0.011259 11.288455 1.889875 -0.762182
Spine -15.517954 6.046042 0.257347
Head 2.975300 -12.190849 9.639575
LeftShoulder -15.763916 13.188584 26.574582
LeftArm 16.453914 -21.290015 -22.757384
LeftForeArm 15.232308 -0.000000 13.663839
LeftHand -24.719942 -0.000000 -10.775590
LeftHandThumb1 -26.253704 0.000000 33.147579
RightShoulder -23.271396 15.197011 -39.767437
RightArm -5.596716 7.051726 25.917034
RightForeArm -33.633619 -0.000000 13.322029
RightHand -7.593405 -0.000000 14.426044
RightHandThumb1 -24.326973 -0.000000 -32.862282
LeftUpLeg -4.095117 8.181529 2.087027
LeftLeg -1.887318 -0.000000 0.000000
LeftFoot -10.267065 4.860733 -10.599977
LeftToeBase 11.399488 -0.000000 -0.000000
RightUpLeg -6.341217 -7.310155 -1.122165
RightLeg 0.822754 -0.000000 -0.000000
RightFoot -8.295937 -7.006738 6.078652
RightToeBase 3.240320 -0.000000 -0.000000
6
root -0.346559 32.913018 0.010251 11.266056 1.883229 -0.758478
Spine -15.506309 6.070832 0.247868
Head 3.041111 -12.193437 9.624056
LeftShoulder -15.769943 13.156757 26.578128
LeftArm 16.518481 -21.254431 -22.811196
LeftForeArm 15.175220 -0.000000 13.662766
LeftHand -24.734798 -0.000000 -10.760086
LeftHandThumb1 -26.253704 0.000000 33.147579
RightShoulder -23.284313 15.225718 -39.780631
RightArm -5.584094 6.949292 25.909332
RightForeArm -33.659033 0.000000 13.307552
RightHand -7.581996 0.000000 14.427414
RightHandThumb1 -24.326973 -0.000000 -32.862282
LeftUpLeg -4.074064 8.206887 2.081491
LeftLeg -1.901725 -0.000000 0.000000
LeftFoot -10.282470 4.829180 -10.636633
LeftToeBase 11.566663 -0.000000 -0.000000
RightUpLeg -6.320552 -7.308207 -1.138396
RightLeg 0.822281 -0.000000 -0.000000
RightFoot -8.288437 -7.002433 6.078845
RightToeBase 3.230282 -0.000000 -0.000000
7
root -0.340932 32.913409 0.008604 11.240137 1.884186 -0.757295
Spine -15.493694 6.077367 0.246046
Head 3.126507 -12.215558 9.587867
LeftShoulder -15.767820 13.151306 26.562857
LeftArm 16.594642 -21.231335 -22.840863
LeftForeArm 15.181570 -0.000000 13.587723
LeftHand -24.600755 -0.000000 -10.787763
LeftHandThumb1 -26.253704 0.000000 33.147579
RightShoulder -23.266767 15.216934 -39.772443
RightArm -5.567117 6.918388 25.906592
RightForeArm -33.730189 -0.000000 13.295726
RightHand -7.537316 0.000000 14.435069
RightHandThumb1 -24.326973 -0.000000 -32.862282
LeftUpLeg -4.052972 8.182119 2.074431
LeftLeg -1.896194 -0.000000 0.000000
LeftFoot -10.296539 4.857633 -10.667460
LeftToeBase 11.560780 -0.000000 -0.000000
RightUpLeg -6.296240 -7.321493 -1.149641
RightLeg 0.819763 -0.000000 -0.000000
RightFoot -8.277521 -6.998930 6.071164
RightToeBase 3.257255 -0.000000 -0.000000
8
root -0.336214 32.913484 0.006311 11.228332 1.885919 -0.758623
Spine -15.495431 6.083002 0.247183
Head 3.212786 -12.211771 9.547779
LeftShoulder -15.775585 13.166554 26.558088
LeftArm 16.669672 -21.240178 -22.902425
LeftForeArm 15.081400 0.000000 13.545570
LeftHand -24.508753 0.000000 -10.740329
LeftHandThumb1 -26.253704 0.000000 33.147579
RightShoulder -23.270365 15.248079 -39.792036
RightArm -5.540218 6.814526 25.911199
RightForeArm -33.745345 0.000000 13.264786
RightHand -7.511520 -0.000000 14.470562
RightHandThumb1 -24.326973 -0.000000 -32.862282
LeftUpLeg -4.053330 8.170886 2.069570
LeftLeg -1.871050 -0.000000 0.000000
LeftFoot -10.259370 4.837833 -10.524903
LeftToeBase 11.385672 -0.000000 -0.000000
RightUpLeg -6.281399 -7.328586 -1.163193
RightLeg 0.806721 -0.000000 -0.000000
RightFoot -8.264913 -6.958342 6.138334
RightToeBase 3.233148 -0.000000 -0.000000
9
root -0.329809 32.913616 0.004257 11.207994 1.891586 -0.755200
Spine -15.484539 6.083265 0.253055
Head 3.304601 -12.193698 9.503273
LeftShoulder -15.774118 13.156359 26.556734
LeftArm 16.690061 -21.239341 -22.952359
LeftForeArm 15.015193 0.000000 13.605822
LeftHand -24.587322 0.000000 -10.862205
LeftHandThumb1 -26.253704 0.000000 33.147579
RightShoulder -23.256041 15.252429 -39.796373
RightArm -5.527798 6.740870 25.909198
RightForeArm -33.751671 -0.000000 13.276235
RightHand -7.528956 -0.000000 14.520127
RightHandThumb1 -24.326973 -0.000000 -32.862282
LeftUpLeg -4.039999 8.164371 2.058181
LeftLeg -1.873223 -0.000000 0.000000
LeftFoot -10.309731 4.866372 -10.637582
LeftToeBase 11.572283 -0.000000 -0.000000
RightUpLeg -6.261935 -7.328217 -1.180450
RightLeg 0.804515 -0.000000 -0.000000
RightFoot -8.265117 -6.957229 6.157149
RightToeBase 3.235200 -0.000000 -0.000000
10
root -0.324083 32.913491 0.002214 11.185551 1.902695 -0.753394
Spine -15.472507 6.085641 0.251250
Head 3.408007 -12.196475 9.453688
LeftShoulder -15.781610 13.179329 26.535178
LeftArm 16.784253 -21.239406 -22.985471
LeftForeArm 15.021952 -0.000000 13.538749
LeftHand -24.488237 -0.000000 -10.800382
LeftHandThumb1 -26.253704 0.000000 33.147579
RightShoulder -23.268956 15.193725 -39.785834
RightArm -5.441994 6.723036 25.929089
RightForeArm -33.770497 -0.000000 13.243707
RightHand -7.473740 -0.000000 14.597705
RightHandThumb1 -24.326973 -0.000000 -32.862282
LeftUpLeg -4.019676 8.144959 2.047968
LeftLeg -1.879128 -0.000000 0.000000
LeftFoot -10.318073 4.889307 -10.626824
LeftToeBase 11.592597 -0.000000 -0.000000
RightUpLeg -6.239149 -7.343640 -1.192347
RightLeg 0.797638 -0.000000 -0.000000
RightFoot -8.259854 -6.972087 6.157539
RightToeBase 3.231725 -0.000000 -0.000000
11
root -0.316587 32.913710 -0.000737 11.171092 1.922743 -0.745418
Spine -15.467210 6.065128 0.258226
Head 3.515887 -12.178855 9.383841
LeftShoulder -15.769602 13.175577 26.529390
LeftArm 16.785834 -21.286678 -23.036925
LeftForeArm 14.881605 -0.000000 13.591333
LeftHand -24.506586 0.000000 -10.873355
LeftHandThumb1 -26.253704 0.000000 33.147579
RightShoulder -23.271888 15.184487 -39.804341
RightArm -5.391503 6.659488 25.954815
RightForeArm -33.806084 -0.000000 13.242589
RightHand -7.510370 -0.000000 14.615379
RightHandThumb1 -24.326973 -0.000000 -32.862282
LeftUpLeg -4.018700 8.132882 2.030770
LeftLeg -1.867714 -0.000000 0.000000
LeftFoot -10.306475 4.883237 -10.588242
LeftToeBase 11.537839 -0.000000 -0.000000
RightUpLeg -6.227207 -7.374478 -1.208132
RightLeg 0.799659 -0.000000 -0.000000
RightFoot -8.257962 -6.959952 6.149772
RightToeBase 3.287017 -0.000000 -0.000000
12
root -0.308403 32.913690 -0.002988 11.145363 1.946539 -0.732183
Spine -15.449535 6.056030 0.255999
Head 3.631289 -12.197841 9.300856
LeftShoulder -15.755118 13.166528 26.527922
LeftArm 16.830203 -21.317731 -23.090173
LeftForeArm 14.887548 -0.000000 13.551326
LeftHand -24.358416 -0.000000 -10.875554
LeftHandThumb1 -26.253704 0.000000 33.147579
RightShoulder -23.287107 15.159211 -39.801925
RightArm -5.317268 6.560559 25.954214
RightForeArm -33.777611 0.000000 13.214696
RightHand -7.413405 -0.000000 14.752220
RightHandThumb1 -24.326973 -0.000000 -32.862282
LeftUpLeg -4.006986 8.127500 2.007061
LeftLeg -1.853347 -0.000000 0.000000
LeftFoot -10.314587 4.860223 -10.585896
LeftToeBase 11.572143 -0.000000 -0.000000
RightUpLeg -6.200192 -7.397307 -1.232810
RightLeg 0.797115 -0.000000 -0.000000
RightFoot -8.250619 -6.984957 6.108747
RightToeBase 3.243466 -0.000000 -0.000000
13
root -0.299154 32.914452 -0.006098 11.126642 1.969335 -0.724268
Spine -15.441183 6.036977 0.260350
Head 3.751373 -12.183179 9.249019
LeftShoulder -15.745378 13.134495 26.496668
LeftArm 16.895491 -21.233705 -23.063425
LeftForeArm 14.927170 -0.000000 13.424067
LeftHand -24.280906 -0.000000 -10.751587
LeftHandThumb1 -26.253704 0.000000 33.147579
RightShoulder -23.296564 15.122060 -39.775855
RightArm -5.217519 6.501423 25.948157
RightForeArm -33.734198 -0.000000 13.184392
RightHand -7.384009 -0.000000 14.804159
RightHandThumb1 -24.326973 -0.000000 -32.862282
LeftUpLeg -4.000474 8.109312 1.985684
LeftLeg -1.846958 -0.000000 0.000000
LeftFoot -10.304296 4.877984 -10.549288
LeftToeBase 11.555430 -0.000000 -0.000000
RightUpLeg -6.187234 -7.428009 -1.252332
RightLeg 0.802778 -0.000000 -0.000000
RightFoot -8.233628 -6.973166 6.157710
RightToeBase 3.176877 -0.000000 -0.000000
